<mxfile host="app.diagrams.net" agent="Mozilla/5.0 (Windows NT 10.0; Win64; x64) AppleWebKit/537.36 (KHTML, like Gecko) Chrome/136.0.0.0 Safari/537.36 Edg/136.0.0.0" version="27.1.1">
  <diagram name="Page-1" id="HK8NlMt7FZSg5dhkWdCt">
    <mxGraphModel dx="1144" dy="660" grid="1" gridSize="10" guides="1" tooltips="1" connect="1" arrows="1" fold="1" page="1" pageScale="1" pageWidth="850" pageHeight="1100" math="0" shadow="0">
      <root>
        <mxCell id="0" />
        <mxCell id="1" parent="0" />
        <mxCell id="2" value="DFD Nivel 1 (Simplificado) para GestiÃ³n de Transacciones" style="whiteSpace=wrap;strokeWidth=2;verticalAlign=top;" parent="1" vertex="1">
          <mxGeometry x="8" y="8" width="530" height="735" as="geometry" />
        </mxCell>
        <mxCell id="3" value="Ciudadano" style="whiteSpace=wrap;strokeWidth=2;" parent="2" vertex="1">
          <mxGeometry x="212" y="46" width="135" height="54" as="geometry" />
        </mxCell>
        <mxCell id="4" value="Manejar Solicitud" style="whiteSpace=wrap;strokeWidth=2;" parent="2" vertex="1">
          <mxGeometry x="112" y="197" width="185" height="54" as="geometry" />
        </mxCell>
        <mxCell id="5" value="Base de Datos del Sistema" style="whiteSpace=wrap;strokeWidth=2;" parent="2" vertex="1">
          <mxGeometry x="156" y="651" width="247" height="54" as="geometry" />
        </mxCell>
        <mxCell id="6" value="Agencia Gubernamental" style="whiteSpace=wrap;strokeWidth=2;" parent="2" vertex="1">
          <mxGeometry x="164" y="348" width="231" height="54" as="geometry" />
        </mxCell>
        <mxCell id="7" value="Manejar Respuesta" style="whiteSpace=wrap;strokeWidth=2;" parent="2" vertex="1">
          <mxGeometry x="258" y="500" width="194" height="54" as="geometry" />
        </mxCell>
        <mxCell id="8" value="Solicitud" style="startArrow=none;endArrow=block;exitX=0.3;exitY=0.99;entryX=0.5;entryY=0;edgeStyle=orthogonalEdgeStyle;" parent="2" source="3" target="4" edge="1">
          <mxGeometry relative="1" as="geometry" />
        </mxCell>
        <mxCell id="9" value="Guardar solicitud" style="startArrow=none;endArrow=block;exitX=0.35;exitY=1;entryX=0;entryY=0.5;edgeStyle=orthogonalEdgeStyle;entryDx=0;entryDy=0;" parent="2" target="5" edge="1">
          <mxGeometry relative="1" as="geometry">
            <Array as="points">
              <mxPoint x="112" y="251" />
              <mxPoint x="112" y="451" />
              <mxPoint x="102" y="451" />
              <mxPoint x="102" y="678" />
            </Array>
            <mxPoint x="186.75" y="251" as="sourcePoint" />
            <mxPoint x="235.16000000000008" y="651" as="targetPoint" />
          </mxGeometry>
        </mxCell>
        <mxCell id="10" value="Enviar solicitud" style="startArrow=none;endArrow=block;exitX=0.65;exitY=1;entryX=0.5;entryY=0.01;edgeStyle=orthogonalEdgeStyle;" parent="2" source="4" target="6" edge="1">
          <mxGeometry relative="1" as="geometry" />
        </mxCell>
        <mxCell id="11" value="Respuesta" style="startArrow=none;endArrow=block;exitX=0.5;exitY=1.01;entryX=0.36;entryY=-0.01;edgeStyle=orthogonalEdgeStyle;" parent="2" source="6" target="7" edge="1">
          <mxGeometry relative="1" as="geometry" />
        </mxCell>
        <mxCell id="12" value="Actualizar estado" style="startArrow=none;endArrow=block;exitX=0.5;exitY=0.99;entryX=0.61;entryY=0;edgeStyle=orthogonalEdgeStyle;" parent="2" source="7" target="5" edge="1">
          <mxGeometry x="-0.0071" relative="1" as="geometry">
            <mxPoint as="offset" />
          </mxGeometry>
        </mxCell>
        <mxCell id="13" value="Resultado" style="startArrow=none;endArrow=block;exitX=1;exitY=0.5;entryX=0.963;entryY=0.481;edgeStyle=orthogonalEdgeStyle;exitDx=0;exitDy=0;entryDx=0;entryDy=0;entryPerimeter=0;" parent="2" source="7" target="3" edge="1">
          <mxGeometry relative="1" as="geometry">
            <Array as="points">
              <mxPoint x="452" y="522" />
              <mxPoint x="492" y="522" />
              <mxPoint x="492" y="72" />
            </Array>
          </mxGeometry>
        </mxCell>
      </root>
    </mxGraphModel>
  </diagram>
</mxfile>
